<svg width="32" height="32" viewBox="0 0 32 32" fill="none" xmlns="http://www.w3.org/2000/svg">
<path d="M2.92991 9.46155C2.7926 9.24458 2.74371 8.98322 2.79331 8.73129C2.84291 8.47936 2.98721 8.25603 3.19651 8.1073C6.93135 5.43614 11.4081 4 15.9998 4C20.5916 4 25.0683 5.43614 28.8032 8.1073C29.0125 8.25603 29.1568 8.47936 29.2064 8.73129C29.256 8.98322 29.2071 9.24458 29.0698 9.46155L16.8435 28.6742C16.7532 28.8162 16.6285 28.933 16.4811 29.014C16.3336 29.0949 16.1681 29.1374 15.9998 29.1374C15.8316 29.1374 15.6661 29.0949 15.5186 29.014C15.3712 28.933 15.2465 28.8162 15.1562 28.6742L2.92991 9.46155Z" stroke="#262627" stroke-width="2" stroke-linecap="round" stroke-linejoin="round"/>
<path d="M4.59277 12.075C7.8102 9.4399 11.8407 8 15.9996 8C20.1584 8 24.1889 9.4399 27.4064 12.075" stroke="#262627" stroke-width="2" stroke-linecap="round" stroke-linejoin="round"/>
<path d="M20.5393 22.8666C20.0153 22.7171 19.5334 22.4474 19.132 22.0788C18.7306 21.7103 18.4208 21.2531 18.2273 20.7437C18.0337 20.2343 17.9618 19.6868 18.0171 19.1447C18.0725 18.6026 18.2537 18.0809 18.5463 17.6212C18.8388 17.1614 19.2347 16.7764 19.7023 16.4966C20.1699 16.2168 20.6964 16.0501 21.2398 16.0096C21.7832 15.9692 22.3286 16.0562 22.8324 16.2637C23.3363 16.4712 23.7848 16.7935 24.1421 17.2049" stroke="#262627" stroke-width="2" stroke-linecap="round" stroke-linejoin="round"/>
<path d="M7.2373 16.2304C7.46831 15.6367 7.85697 15.1172 8.36139 14.7281C8.86582 14.339 9.46688 14.0949 10.0998 14.0221C10.7327 13.9494 11.3735 14.0507 11.953 14.3153C12.5326 14.5798 13.029 14.9975 13.3886 15.5233C13.7483 16.0492 13.9577 16.6632 13.9942 17.2992C14.0306 17.9353 13.8928 18.5692 13.5956 19.1327C13.2984 19.6962 12.853 20.1679 12.3075 20.497C11.762 20.826 11.137 21 10.4999 21C10.4237 21 10.3481 20.9976 10.2731 20.9928" stroke="#262627" stroke-width="2" stroke-linecap="round" stroke-linejoin="round"/>
</svg>
