<svg width="360" height="208" viewBox="0 0 360 208" fill="none" xmlns="http://www.w3.org/2000/svg">
<path d="M79.5325 144L62.9439 160.368L46.3452 144L29.7566 160.368L13.168 144L0.0101002 156.986L0 160.628L13.168 147.632L29.7566 164L46.3452 147.632L62.9439 164L79.5325 147.632L94.1736 162.069L96 160.238L79.5325 144Z" fill="#48C5B4"/>
<path d="M343.704 152L327.288 168.368L310.862 152L294.447 168.368L278.031 152L265.01 164.986L265 168.628L278.031 155.632L294.447 172L310.862 155.632L327.288 172L343.704 155.632L358.193 170.069L360 168.238L343.704 152Z" fill="#311882"/>
<path d="M246.781 188L230.442 204.368L214.093 188L197.754 204.368L181.416 188L167.005 202.437L152.584 188L136.246 204.368L119.897 188L103.558 204.368L87.2195 188L71 204.248L72.8088 206.069L87.2195 191.632L103.558 208L119.897 191.632L136.246 208L152.584 191.632L167.005 206.079L181.416 191.632L197.754 208L214.093 191.632L230.442 208L246.781 191.632L261.201 206.069L263 204.248L246.781 188Z" fill="#7354F0"/>
<path fill-rule="evenodd" clip-rule="evenodd" d="M261.5 201H345L241 105L152.604 186.597L167.5 200.5L181.5 186.5L196 201H199.5L214 186.5L229 201H232L247 186.5L261.5 201Z" fill="#F9CC4D"/>
<path d="M193 92C193 89.7909 194.791 88 197 88H232C236.418 88 240 91.5817 240 96V158C240 162.418 236.418 166 232 166H201C196.582 166 193 162.418 193 158V92Z" fill="#311882"/>
<path d="M186 144C186 139.582 189.582 136 194 136H216V166H194C189.582 166 186 162.418 186 158V144Z" fill="#311882"/>
<line x1="191" y1="155" x2="191" y2="161" stroke="white" stroke-width="2" stroke-linecap="round"/>
<line x1="191" y1="161" x2="197" y2="161" stroke="white" stroke-width="2" stroke-linecap="round"/>
<rect x="200" y="160" width="3" height="2" rx="1" fill="white"/>
<path d="M258 142C258 145.152 257.379 148.273 256.173 151.184C254.967 154.096 253.199 156.742 250.971 158.971C248.742 161.199 246.096 162.967 243.184 164.173C240.273 165.379 237.152 166 234 166L234 142H258Z" fill="#311882"/>
<path d="M252 131C252 129.343 253.343 128 255 128H262V139C262 140.657 260.657 142 259 142H252V131Z" stroke="#311882" stroke-width="2"/>
<path d="M196 126H200V133C200 133.552 199.552 134 199 134H197C196.448 134 196 133.552 196 133V126Z" fill="white"/>
<path d="M206 126H210V133C210 133.552 209.552 134 209 134H207C206.448 134 206 133.552 206 133V126Z" fill="white"/>
<rect x="187" y="105" width="34" height="22" rx="3" fill="white" stroke="#311882" stroke-width="2"/>
<circle cx="200" cy="111" r="2" fill="#311882"/>
<circle cx="208" cy="111" r="2" fill="#311882"/>
<line x1="186" y1="115" x2="194" y2="115" stroke="#311882" stroke-width="2"/>
<line x1="214" y1="115" x2="222" y2="115" stroke="#311882" stroke-width="2"/>
<line x1="186" y1="119" x2="194" y2="119" stroke="#311882" stroke-width="2"/>
<line x1="214" y1="119" x2="222" y2="119" stroke="#311882" stroke-width="2"/>
<path d="M209 99C209 97.9391 208.579 96.9217 207.828 96.1716C207.078 95.4214 206.061 95 205 95C203.939 95 202.922 95.4214 202.172 96.1716C201.421 96.9217 201 97.9391 201 99L202.6 99C202.6 98.3635 202.853 97.753 203.303 97.3029C203.753 96.8529 204.363 96.6 205 96.6C205.637 96.6 206.247 96.8529 206.697 97.3029C207.147 97.753 207.4 98.3635 207.4 99H209Z" fill="white"/>
<path d="M225 99C225 97.9391 224.579 96.9217 223.828 96.1716C223.078 95.4214 222.061 95 221 95C219.939 95 218.922 95.4214 218.172 96.1716C217.421 96.9217 217 97.9391 217 99L218.6 99C218.6 98.3635 218.853 97.753 219.303 97.3029C219.753 96.8529 220.363 96.6 221 96.6C221.637 96.6 222.247 96.8529 222.697 97.3029C223.147 97.753 223.4 98.3635 223.4 99H225Z" fill="white"/>
<path d="M126.206 77.0673L125.73 76.7038C132.057 68.398 135.401 58.4759 135.401 48.0056C135.401 31.7856 127.241 16.8632 113.57 8.08762L113.895 7.58423C127.738 16.4661 136 31.5786 136 48.0056C136 58.6045 132.61 68.6553 126.206 77.0673Z" fill="#F9CC4D"/>
<path d="M88.0028 96C61.5347 96 40 74.4666 40 48C40 21.5334 61.5347 0 88.0028 0V0.598457C61.8647 0.598457 40.6041 21.8634 40.6041 47.9944C40.6041 74.131 61.8703 95.3904 88.0028 95.3904C95.9007 95.3904 103.72 93.4104 110.611 89.663L110.897 90.1888C103.916 93.9977 95.9958 96 88.0028 96Z" fill="#F9CC4D"/>
<path d="M65.2879 84.948C52.3559 76.9835 44.637 63.1685 44.637 48H45.8395C45.8395 62.749 53.3459 76.1781 65.92 83.9245L65.2879 84.948Z" fill="#F9CC4D"/>
<path d="M88.0027 91.3689C83.2483 91.3689 78.5778 90.6027 74.1143 89.0981L74.5002 87.9627C78.8407 89.4281 83.3826 90.172 88.0083 90.172C109.728 90.172 127.766 73.9017 129.953 52.3235L131.15 52.4465C128.891 74.6288 110.343 91.3689 88.0027 91.3689Z" fill="#F9CC4D"/>
<path d="M129.629 41.2659C128.057 31.4836 123.035 22.5178 115.478 16.0242C107.843 9.45793 98.0823 5.84478 88.0029 5.84478C79.8645 5.84478 71.9666 8.16592 65.1594 12.5621C57.2279 17.6854 51.1758 25.4039 48.1162 34.2969L46.9807 33.9054C50.1242 24.7607 56.3497 16.824 64.5049 11.5553C71.5079 7.03611 79.6296 4.64786 87.9973 4.64786C98.3675 4.64786 108.402 8.36726 116.255 15.1181C124.025 21.7963 129.193 31.0193 130.809 41.0813L129.629 41.2659Z" fill="#F9CC4D"/>
<path d="M88.0029 79.3214C70.7304 79.3214 56.6797 65.2715 56.6797 48C56.6797 41.0086 58.9338 34.3976 63.1904 28.8828L64.1413 29.6155C60.0469 34.9233 57.8823 41.2771 57.8823 48C57.8823 64.6059 71.396 78.1189 88.0029 78.1189C90.9506 78.1189 93.8648 77.6938 96.6559 76.8548L97.0027 78.007C94.0941 78.8851 91.0625 79.3214 88.0029 79.3214Z" fill="#F9CC4D"/>
<path d="M109.157 71.0995L108.346 70.2158C114.56 64.522 118.123 56.4288 118.123 48.0056C118.123 42.0769 116.4 36.3384 113.145 31.4108L114.146 30.7509C117.536 35.8741 119.326 41.842 119.326 48.0112C119.32 56.7644 115.617 65.182 109.157 71.0995Z" fill="#F9CC4D"/>
<path d="M106.741 24.4195C101.366 20.1408 94.8828 17.8811 88.0029 17.8811C81.9676 17.8811 76.1448 19.6598 71.1611 23.0268L70.4899 22.0312C75.6694 18.53 81.7271 16.6842 88.0029 16.6842C95.1625 16.6842 101.903 19.0333 107.49 23.4854L106.741 24.4195Z" fill="#F9CC4D"/>
<path d="M88.0027 73.9408C83.7853 73.9408 79.5958 72.9061 75.8929 70.9485L76.1726 70.4172C79.7916 72.33 83.8804 73.3424 87.9971 73.3424C99.3686 73.3424 109.414 65.6966 112.429 54.7453L113.005 54.9075C109.929 66.1161 99.6426 73.9408 88.0027 73.9408Z" fill="#F36661"/>
<path d="M69.6619 66.351C64.762 61.4514 62.0604 54.9355 62.0604 48.0056C62.0604 33.704 73.6948 22.0648 88.0027 22.0648C102.305 22.0648 113.945 33.704 113.945 48.0056H113.347C113.347 34.034 101.981 22.6688 88.0083 22.6688C74.0359 22.6688 62.6701 34.034 62.6701 48.0056C62.6701 54.7733 65.3046 61.1382 70.0982 65.9259L69.6619 66.351Z" fill="#F36661"/>
<path d="M88.0028 64.1361C79.1036 64.1361 71.8657 56.8986 71.8657 48C71.8657 39.1014 79.1036 31.8639 88.0028 31.8639V33.0664C79.7692 33.0664 73.0683 39.7669 73.0683 48C73.0683 56.233 79.7692 62.9336 88.0028 62.9336C96.2363 62.9336 102.937 56.233 102.937 48H104.14C104.134 56.8986 96.8963 64.1361 88.0028 64.1361Z" fill="#F9CC4D"/>
<path d="M88.0029 56.0205C83.5785 56.0205 79.9819 52.4241 79.9819 48H80.5804C80.5804 52.0886 83.9085 55.4165 87.9973 55.4165C92.0861 55.4165 95.4142 52.0886 95.4142 48C95.4142 43.9114 92.0861 40.5835 87.9973 40.5835C85.7264 40.5835 83.6121 41.6015 82.1913 43.3801L81.7215 43.0054C83.2541 41.0813 85.5418 39.9795 87.9973 39.9795C92.4217 39.9795 96.0183 43.5759 96.0183 48C96.0183 52.4241 92.4217 56.0205 88.0029 56.0205Z" fill="#F9CC4D"/>
<rect width="199" height="50" transform="translate(81 8)" fill="white" fill-opacity="0.8"/>
<path d="M102.944 22.596H107.312V42H102.944V33.768H95.608V42H91.24V22.596H95.608V30.016H102.944V22.596ZM110.823 34.748C110.823 33.4413 111.019 32.3027 111.41 31.332C111.821 30.3427 112.353 29.5213 113.007 28.868C113.66 28.2147 114.407 27.72 115.247 27.384C116.105 27.048 116.983 26.88 117.879 26.88C119.969 26.88 121.621 27.524 122.835 28.812C124.048 30.0813 124.655 31.9573 124.655 34.44C124.655 34.6827 124.645 34.9533 124.627 35.252C124.608 35.532 124.589 35.784 124.571 36.008H115.107C115.2 36.8667 115.601 37.548 116.311 38.052C117.02 38.556 117.972 38.808 119.167 38.808C119.932 38.808 120.679 38.7427 121.407 38.612C122.153 38.4627 122.76 38.2853 123.227 38.08L123.787 41.468C123.563 41.58 123.264 41.692 122.891 41.804C122.517 41.916 122.097 42.0093 121.631 42.084C121.183 42.1773 120.697 42.252 120.175 42.308C119.652 42.364 119.129 42.392 118.607 42.392C117.281 42.392 116.124 42.196 115.135 41.804C114.164 41.412 113.352 40.88 112.699 40.208C112.064 39.5173 111.588 38.7053 111.271 37.772C110.972 36.8387 110.823 35.8307 110.823 34.748ZM120.623 33.152C120.604 32.7973 120.539 32.452 120.427 32.116C120.333 31.78 120.175 31.4813 119.951 31.22C119.745 30.9587 119.475 30.744 119.139 30.576C118.821 30.408 118.42 30.324 117.935 30.324C117.468 30.324 117.067 30.408 116.731 30.576C116.395 30.7253 116.115 30.9307 115.891 31.192C115.667 31.4533 115.489 31.7613 115.359 32.116C115.247 32.452 115.163 32.7973 115.107 33.152H120.623ZM133.754 42.28C132.541 42.2613 131.551 42.1307 130.786 41.888C130.039 41.6453 129.442 41.3093 128.994 40.88C128.565 40.432 128.266 39.9 128.098 39.284C127.949 38.6493 127.874 37.94 127.874 37.156V20.944L132.046 20.272V36.316C132.046 36.6893 132.074 37.0253 132.13 37.324C132.186 37.6227 132.289 37.8747 132.438 38.08C132.606 38.2853 132.839 38.4533 133.138 38.584C133.437 38.7147 133.838 38.7987 134.342 38.836L133.754 42.28ZM146.169 34.748C146.169 33.46 145.88 32.4333 145.301 31.668C144.723 30.884 143.864 30.492 142.725 30.492C142.352 30.492 142.007 30.5107 141.689 30.548C141.372 30.5667 141.111 30.5947 140.905 30.632V38.164C141.167 38.332 141.503 38.472 141.913 38.584C142.343 38.696 142.772 38.752 143.201 38.752C145.18 38.752 146.169 37.4173 146.169 34.748ZM150.425 34.636C150.425 35.7747 150.285 36.8107 150.005 37.744C149.725 38.6773 149.315 39.48 148.773 40.152C148.232 40.824 147.56 41.3467 146.757 41.72C145.955 42.0933 145.031 42.28 143.985 42.28C143.407 42.28 142.865 42.224 142.361 42.112C141.857 42 141.372 41.8413 140.905 41.636V47.18H136.733V27.776C137.107 27.664 137.536 27.5613 138.021 27.468C138.507 27.356 139.011 27.2627 139.533 27.188C140.075 27.1133 140.616 27.0573 141.157 27.02C141.717 26.964 142.249 26.936 142.753 26.936C143.967 26.936 145.049 27.1227 146.001 27.496C146.953 27.8507 147.756 28.364 148.409 29.036C149.063 29.6893 149.557 30.492 149.893 31.444C150.248 32.396 150.425 33.46 150.425 34.636ZM152.932 34.748C152.932 33.4413 153.128 32.3027 153.52 31.332C153.931 30.3427 154.463 29.5213 155.116 28.868C155.769 28.2147 156.516 27.72 157.356 27.384C158.215 27.048 159.092 26.88 159.988 26.88C162.079 26.88 163.731 27.524 164.944 28.812C166.157 30.0813 166.764 31.9573 166.764 34.44C166.764 34.6827 166.755 34.9533 166.736 35.252C166.717 35.532 166.699 35.784 166.68 36.008H157.216C157.309 36.8667 157.711 37.548 158.42 38.052C159.129 38.556 160.081 38.808 161.276 38.808C162.041 38.808 162.788 38.7427 163.516 38.612C164.263 38.4627 164.869 38.2853 165.336 38.08L165.896 41.468C165.672 41.58 165.373 41.692 165 41.804C164.627 41.916 164.207 42.0093 163.74 42.084C163.292 42.1773 162.807 42.252 162.284 42.308C161.761 42.364 161.239 42.392 160.716 42.392C159.391 42.392 158.233 42.196 157.244 41.804C156.273 41.412 155.461 40.88 154.808 40.208C154.173 39.5173 153.697 38.7053 153.38 37.772C153.081 36.8387 152.932 35.8307 152.932 34.748ZM162.732 33.152C162.713 32.7973 162.648 32.452 162.536 32.116C162.443 31.78 162.284 31.4813 162.06 31.22C161.855 30.9587 161.584 30.744 161.248 30.576C160.931 30.408 160.529 30.324 160.044 30.324C159.577 30.324 159.176 30.408 158.84 30.576C158.504 30.7253 158.224 30.9307 158 31.192C157.776 31.4533 157.599 31.7613 157.468 32.116C157.356 32.452 157.272 32.7973 157.216 33.152H162.732ZM178.859 30.968C178.486 30.8747 178.047 30.7813 177.543 30.688C177.039 30.576 176.498 30.52 175.919 30.52C175.658 30.52 175.341 30.548 174.967 30.604C174.613 30.6413 174.342 30.688 174.155 30.744V42H169.983V28.056C170.73 27.7947 171.607 27.552 172.615 27.328C173.642 27.0853 174.781 26.964 176.031 26.964C176.255 26.964 176.526 26.9827 176.843 27.02C177.161 27.0387 177.478 27.076 177.795 27.132C178.113 27.1693 178.43 27.2253 178.747 27.3C179.065 27.356 179.335 27.4307 179.559 27.524L178.859 30.968ZM191.232 34.524C191.232 31.836 190.243 30.492 188.264 30.492C187.835 30.492 187.405 30.548 186.976 30.66C186.565 30.772 186.229 30.912 185.968 31.08V38.668C186.173 38.7053 186.435 38.7427 186.752 38.78C187.069 38.7987 187.415 38.808 187.788 38.808C188.927 38.808 189.785 38.416 190.364 37.632C190.943 36.848 191.232 35.812 191.232 34.524ZM195.488 34.636C195.488 35.812 195.311 36.876 194.956 37.828C194.62 38.78 194.125 39.592 193.472 40.264C192.819 40.936 192.016 41.4587 191.064 41.832C190.112 42.1867 189.029 42.364 187.816 42.364C187.312 42.364 186.78 42.336 186.22 42.28C185.679 42.2427 185.137 42.1867 184.596 42.112C184.073 42.0373 183.569 41.9533 183.084 41.86C182.599 41.748 182.169 41.636 181.796 41.524V20.944L185.968 20.272V27.608C186.435 27.4027 186.92 27.244 187.424 27.132C187.928 27.02 188.469 26.964 189.048 26.964C190.093 26.964 191.017 27.1507 191.82 27.524C192.623 27.8787 193.295 28.392 193.836 29.064C194.377 29.736 194.788 30.548 195.068 31.5C195.348 32.4333 195.488 33.4787 195.488 34.636ZM197.994 34.748C197.994 33.4413 198.19 32.3027 198.582 31.332C198.993 30.3427 199.525 29.5213 200.178 28.868C200.832 28.2147 201.578 27.72 202.418 27.384C203.277 27.048 204.154 26.88 205.05 26.88C207.141 26.88 208.793 27.524 210.006 28.812C211.22 30.0813 211.826 31.9573 211.826 34.44C211.826 34.6827 211.817 34.9533 211.798 35.252C211.78 35.532 211.761 35.784 211.742 36.008H202.278C202.372 36.8667 202.773 37.548 203.482 38.052C204.192 38.556 205.144 38.808 206.338 38.808C207.104 38.808 207.85 38.7427 208.578 38.612C209.325 38.4627 209.932 38.2853 210.398 38.08L210.958 41.468C210.734 41.58 210.436 41.692 210.062 41.804C209.689 41.916 209.269 42.0093 208.802 42.084C208.354 42.1773 207.869 42.252 207.346 42.308C206.824 42.364 206.301 42.392 205.778 42.392C204.453 42.392 203.296 42.196 202.306 41.804C201.336 41.412 200.524 40.88 199.87 40.208C199.236 39.5173 198.76 38.7053 198.442 37.772C198.144 36.8387 197.994 35.8307 197.994 34.748ZM207.794 33.152C207.776 32.7973 207.71 32.452 207.598 32.116C207.505 31.78 207.346 31.4813 207.122 31.22C206.917 30.9587 206.646 30.744 206.31 30.576C205.993 30.408 205.592 30.324 205.106 30.324C204.64 30.324 204.238 30.408 203.902 30.576C203.566 30.7253 203.286 30.9307 203.062 31.192C202.838 31.4533 202.661 31.7613 202.53 32.116C202.418 32.452 202.334 32.7973 202.278 33.152H207.794ZM214.346 34.748C214.346 33.4413 214.542 32.3027 214.934 31.332C215.345 30.3427 215.877 29.5213 216.53 28.868C217.183 28.2147 217.93 27.72 218.77 27.384C219.629 27.048 220.506 26.88 221.402 26.88C223.493 26.88 225.145 27.524 226.358 28.812C227.571 30.0813 228.178 31.9573 228.178 34.44C228.178 34.6827 228.169 34.9533 228.15 35.252C228.131 35.532 228.113 35.784 228.094 36.008H218.63C218.723 36.8667 219.125 37.548 219.834 38.052C220.543 38.556 221.495 38.808 222.69 38.808C223.455 38.808 224.202 38.7427 224.93 38.612C225.677 38.4627 226.283 38.2853 226.75 38.08L227.31 41.468C227.086 41.58 226.787 41.692 226.414 41.804C226.041 41.916 225.621 42.0093 225.154 42.084C224.706 42.1773 224.221 42.252 223.698 42.308C223.175 42.364 222.653 42.392 222.13 42.392C220.805 42.392 219.647 42.196 218.658 41.804C217.687 41.412 216.875 40.88 216.222 40.208C215.587 39.5173 215.111 38.7053 214.794 37.772C214.495 36.8387 214.346 35.8307 214.346 34.748ZM224.146 33.152C224.127 32.7973 224.062 32.452 223.95 32.116C223.857 31.78 223.698 31.4813 223.474 31.22C223.269 30.9587 222.998 30.744 222.662 30.576C222.345 30.408 221.943 30.324 221.458 30.324C220.991 30.324 220.59 30.408 220.254 30.576C219.918 30.7253 219.638 30.9307 219.414 31.192C219.19 31.4533 219.013 31.7613 218.882 32.116C218.77 32.452 218.686 32.7973 218.63 33.152H224.146ZM231.258 23.604L235.43 22.932V27.272H240.442V30.744H235.43V35.924C235.43 36.8013 235.579 37.5013 235.878 38.024C236.195 38.5467 236.82 38.808 237.754 38.808C238.202 38.808 238.659 38.7707 239.126 38.696C239.611 38.6027 240.05 38.4813 240.442 38.332L241.03 41.58C240.526 41.7853 239.966 41.9627 239.35 42.112C238.734 42.2613 237.978 42.336 237.082 42.336C235.943 42.336 235 42.1867 234.254 41.888C233.507 41.5707 232.91 41.1413 232.462 40.6C232.014 40.04 231.696 39.368 231.51 38.584C231.342 37.8 231.258 36.932 231.258 35.98V23.604ZM256.411 41.496C255.702 41.7013 254.787 41.888 253.667 42.056C252.547 42.2427 251.371 42.336 250.139 42.336C248.888 42.336 247.843 42.168 247.003 41.832C246.182 41.496 245.528 41.0293 245.043 40.432C244.558 39.816 244.212 39.088 244.007 38.248C243.802 37.408 243.699 36.484 243.699 35.476V27.272H247.871V34.972C247.871 36.316 248.048 37.2867 248.403 37.884C248.758 38.4813 249.42 38.78 250.391 38.78C250.69 38.78 251.007 38.7707 251.343 38.752C251.679 38.7147 251.978 38.6773 252.239 38.64V27.272H256.411V41.496ZM264.555 39.004C265.321 39.004 265.862 38.9293 266.179 38.78C266.497 38.6307 266.655 38.3413 266.655 37.912C266.655 37.576 266.45 37.2867 266.039 37.044C265.629 36.7827 265.003 36.4933 264.163 36.176C263.51 35.9333 262.913 35.6813 262.371 35.42C261.849 35.1587 261.401 34.8507 261.027 34.496C260.654 34.1227 260.365 33.684 260.159 33.18C259.954 32.676 259.851 32.0693 259.851 31.36C259.851 29.9787 260.365 28.8867 261.391 28.084C262.418 27.2813 263.827 26.88 265.619 26.88C266.515 26.88 267.374 26.964 268.195 27.132C269.017 27.2813 269.67 27.4493 270.155 27.636L269.427 30.884C268.942 30.716 268.41 30.5667 267.831 30.436C267.271 30.3053 266.637 30.24 265.927 30.24C264.621 30.24 263.967 30.604 263.967 31.332C263.967 31.5 263.995 31.6493 264.051 31.78C264.107 31.9107 264.219 32.0413 264.387 32.172C264.555 32.284 264.779 32.4147 265.059 32.564C265.358 32.6947 265.731 32.844 266.179 33.012C267.094 33.348 267.85 33.684 268.447 34.02C269.045 34.3373 269.511 34.692 269.847 35.084C270.202 35.4573 270.445 35.8773 270.575 36.344C270.725 36.8107 270.799 37.352 270.799 37.968C270.799 39.424 270.249 40.5253 269.147 41.272C268.065 42.0187 266.525 42.392 264.527 42.392C263.221 42.392 262.129 42.28 261.251 42.056C260.393 41.832 259.795 41.6453 259.459 41.496L260.159 38.108C260.869 38.388 261.597 38.612 262.343 38.78C263.09 38.9293 263.827 39.004 264.555 39.004Z" fill="#311882"/>
<line x1="90" y1="49" x2="271" y2="49" stroke="#F9CC4D" stroke-width="2" stroke-linecap="round"/>
</svg>
